<?xml version="1.0" encoding="UTF-8" standalone="no"?>
<!DOCTYPE svg PUBLIC "-//W3C//DTD SVG 1.1//EN" "http://www.w3.org/Graphics/SVG/1.1/DTD/svg11.dtd">
<svg width="100%" height="100%" viewBox="0 0 100 100" version="1.1" xmlns="http://www.w3.org/2000/svg" xmlns:xlink="http://www.w3.org/1999/xlink" xml:space="preserve" xmlns:serif="http://www.serif.com/" style="fill-rule:evenodd;clip-rule:evenodd;stroke-linecap:round;stroke-linejoin:round;stroke-miterlimit:1.5;">
    <g transform="matrix(0.845785,0,0,0.857068,8.21281,-1.85341)">
        <g transform="matrix(1,0,0,1,-1.5,-8.5)">
            <path d="M67.248,100.129C62.351,101.984 57.043,103 51.5,103C51.19,103 50.88,102.997 50.571,102.99C45.984,102.896 41.566,102.107 37.418,100.722C33.478,99.407 29.782,97.555 26.417,95.253L30.261,95.253L30.271,95.271L70.057,95.271L67.248,100.129ZM72.688,95.271L72.729,95.271L92.657,60.754L95.448,65.524C94.655,70.515 93.031,75.231 90.722,79.526C88.227,84.168 84.931,88.317 81.02,91.788C77.942,94.52 74.482,96.833 70.732,98.635L72.688,95.271ZM23.391,92.989C18.706,89.166 14.814,84.407 12,79C10.126,75.4 8.73,71.512 7.896,67.421C7.309,64.538 7,61.555 7,58.5C7,57.413 7.039,56.336 7.116,55.268L11.624,62.974L28.961,93.002L23.391,92.989ZM7.552,51.477C8.472,45.682 10.514,40.257 13.446,35.433C15.769,31.612 18.651,28.167 21.978,25.214C25.062,22.476 28.53,20.159 32.289,18.355L30.315,21.729L30.271,21.729L10.335,56.259L7.552,51.477ZM35.829,16.842C40.28,15.165 45.071,14.181 50.068,14.023C50.543,14.008 51.021,14 51.5,14C56.415,14 61.145,14.799 65.568,16.273C69.502,17.585 73.194,19.432 76.555,21.727L72.754,21.772L72.729,21.729L32.954,21.729L35.829,16.842ZM79.518,23.937C83.015,26.775 86.073,30.134 88.575,33.893C91.689,38.573 93.94,43.875 95.102,49.572C95.691,52.457 96,55.442 96,58.5C96,59.572 95.962,60.634 95.887,61.687L91.304,53.853L91.283,53.865L74.048,24.013L79.518,23.937Z"/>
        </g>
        <g transform="matrix(1.00624,0,0,0.992994,-4.93064,-1.13921)">
            <circle cx="54" cy="51.5" r="47" style="fill:none;stroke:black;stroke-width:0.94px;"/>
        </g>
    </g>
    <g transform="matrix(1,0,0,1,-12.1868,1.77214)">
        <g transform="matrix(18.6667,0,0,18.6667,82.5078,98)">
        </g>
        <text x="41px" y="98px" style="font-family:'Arial-ItalicMT', 'Arial', sans-serif;font-style:italic;font-size:18.667px;">f/ 3.3</text>
    </g>
</svg>
