<?xml version="1.0" encoding="UTF-8" standalone="no"?>
<!DOCTYPE svg PUBLIC "-//W3C//DTD SVG 1.1//EN" "http://www.w3.org/Graphics/SVG/1.1/DTD/svg11.dtd">
<svg width="100%" height="100%" viewBox="0 0 100 100" version="1.1" xmlns="http://www.w3.org/2000/svg" xmlns:xlink="http://www.w3.org/1999/xlink" xml:space="preserve" xmlns:serif="http://www.serif.com/" style="fill-rule:evenodd;clip-rule:evenodd;stroke-linecap:round;stroke-linejoin:round;stroke-miterlimit:1.5;">
    <g transform="matrix(0.857068,0,0,0.857068,7.14659,-2.35341)">
        <g transform="matrix(1,0,0,1,-1.5,-8.5)">
            <path d="M44.269,51.105L41.28,56.283L22.908,24.411C30.643,17.914 40.618,14 51.5,14C56.039,14 60.42,14.681 64.546,15.946L44.226,51.085L44.269,51.105ZM66.715,16.673C80.747,21.785 91.491,33.761 94.877,48.53L52.711,48.501L52.714,48.541L48.316,48.541L66.715,16.673ZM95.33,50.771C95.77,53.281 96,55.864 96,58.5C96,71.355 90.537,82.945 81.808,91.072L60.618,54.31L60.591,54.328L58.538,50.771L95.33,50.771ZM80.095,92.586C72.36,99.084 62.383,103 51.5,103C46.964,103 42.586,102.32 38.462,101.056L58.911,65.638L58.882,65.632L61.708,60.738L80.095,92.586ZM36.268,100.321C22.25,95.207 11.515,83.242 8.127,68.486L46.974,68.486L46.966,68.459L54.693,68.459L36.268,100.321ZM7.668,66.219C7.229,63.712 7,61.133 7,58.5C7,45.654 12.455,34.071 21.174,25.945L42.695,63.222L42.714,63.201L44.472,66.245L7.668,66.219Z"/>
        </g>
        <g transform="matrix(0.992994,0,0,0.992994,-3.62169,-1.13921)">
            <circle cx="54" cy="51.5" r="47" style="fill:none;stroke:black;stroke-width:0.94px;"/>
        </g>
    </g>
    <g transform="matrix(1,0,0,1,-9.63932,1.78125)">
        <g transform="matrix(18.6667,0,0,18.6667,77.3216,98)">
        </g>
        <text x="41px" y="98px" style="font-family:'Arial-ItalicMT', 'Arial', sans-serif;font-style:italic;font-size:18.667px;">f/ 22</text>
    </g>
</svg>
