<?xml version="1.0" encoding="UTF-8" standalone="no"?>
<!DOCTYPE svg PUBLIC "-//W3C//DTD SVG 1.1//EN" "http://www.w3.org/Graphics/SVG/1.1/DTD/svg11.dtd">
<svg width="100%" height="100%" viewBox="0 0 100 100" version="1.1" xmlns="http://www.w3.org/2000/svg" xmlns:xlink="http://www.w3.org/1999/xlink" xml:space="preserve" xmlns:serif="http://www.serif.com/" style="fill-rule:evenodd;clip-rule:evenodd;stroke-linecap:round;stroke-linejoin:round;stroke-miterlimit:1.5;">
    <g transform="matrix(0.857068,0,0,0.857068,7.14659,-1.85341)">
        <g transform="matrix(1,0,0,1,-1.5,-8.5)">
            <path d="M49.2,102.941C45.103,102.732 41.151,101.968 37.418,100.722C26.756,97.163 17.885,89.675 12.526,79.98L44.144,79.98L44.134,79.952L62.473,79.952L49.2,102.941ZM68.388,74.205L77.317,58.74L90.032,80.762C87.631,84.906 84.58,88.628 81.02,91.788C73.223,98.709 62.981,102.935 51.761,102.999L68.407,74.214L68.388,74.205ZM11.359,77.719C9.805,74.483 8.632,71.031 7.896,67.421C7.309,64.538 7,61.555 7,58.5C7,50.49 9.121,42.972 12.831,36.476L24.36,56.443L24.357,56.447L36.649,77.736L11.359,77.719ZM14.176,34.273C16.363,30.912 18.991,27.865 21.978,25.214C29.221,18.784 38.573,14.68 48.86,14.077L37.969,32.941L37.928,32.941L25.659,54.193L14.176,34.273ZM51.521,14C56.429,14.002 61.152,14.801 65.568,16.273C74.702,19.318 82.523,25.247 87.948,32.977L65.082,32.961L65.07,32.941L40.568,32.941L51.521,14ZM89.424,35.221C92.1,39.567 94.049,44.407 95.102,49.572C95.691,52.457 96,55.442 96,58.5C96,65.669 94.301,72.445 91.284,78.446L78.622,56.48L78.641,56.447L66.386,35.221L89.424,35.221Z"/>
        </g>
        <g transform="matrix(0.992994,0,0,0.992994,-3.62169,-1.13921)">
            <circle cx="54" cy="51.5" r="47" style="fill:none;stroke:black;stroke-width:0.94px;"/>
        </g>
    </g>
    <g transform="matrix(1,0,0,1,-4.47135,1.76302)">
        <g transform="matrix(18.6667,0,0,18.6667,66.9401,98)">
        </g>
        <text x="41px" y="98px" style="font-family:'Arial-ItalicMT', 'Arial', sans-serif;font-style:italic;font-size:18.667px;">f/ 8</text>
    </g>
</svg>
