<?xml version="1.0" encoding="UTF-8" standalone="no"?>
<!DOCTYPE svg PUBLIC "-//W3C//DTD SVG 1.1//EN" "http://www.w3.org/Graphics/SVG/1.1/DTD/svg11.dtd">
<svg width="100%" height="100%" viewBox="0 0 300 300" version="1.1" xmlns="http://www.w3.org/2000/svg" xmlns:xlink="http://www.w3.org/1999/xlink" xml:space="preserve" xmlns:serif="http://www.serif.com/" style="fill-rule:evenodd;clip-rule:evenodd;stroke-linecap:round;stroke-linejoin:round;stroke-miterlimit:1.5;">
    <g transform="matrix(1.35877,0,0,1.35877,-63.9487,-76.3971)">
        <g transform="matrix(0.762436,0,0,0.762436,-16.9926,-6.27809)">
            <path d="M224.041,91.631L340.787,325.123L107.295,325.123L224.041,91.631Z" style="fill:none;stroke:black;stroke-width:10.05px;"/>
        </g>
        <g transform="matrix(1.14523,-7.6916e-17,1.34048e-16,1.39418,71.5154,2.51055)">
            <g transform="matrix(23.909,0,0,23.909,88.2953,194.897)">
            </g>
            <text x="47.108px" y="194.897px" style="font-family:'ArialMT', 'Arial', sans-serif;font-size:23.909px;">ISO</text>
        </g>
        <g transform="matrix(0.192506,-0.390304,0.390304,0.192506,-4.21666,259.948)">
            <g transform="matrix(50,0,0,50,473.012,98.6871)">
            </g>
            <text x="201.65px" y="98.687px" style="font-family:'ArialMT', 'Arial', sans-serif;font-size:50px;">APER<tspan x="336.904px 367.446px " y="98.687px 98.687px ">TU</tspan>RE</text>
        </g>
        <g transform="matrix(0.284426,0.566135,-0.566135,0.284426,304.461,-56.2662)">
            <g transform="matrix(32.088,0,0,32.088,371.695,282.958)">
            </g>
            <text x="102.472px" y="282.958px" style="font-family:'ArialMT', 'Arial', sans-serif;font-size:32.088px;">SHUTTER SPEED</text>
        </g>
    </g>
</svg>
